<svg width="1350px" height="700px" viewBox="0 0 1350 700" version="1.1" xmlns="http://www.w3.org/2000/svg">
  <path d="M17 70 L18 50  19 45  21 40  24 35  29 28  35 22  43 17  54 13  75 10  85 11  94 12  103 15  111 18  117 23  122 28  126 33  128 37  132 52  134 97  84 97  84 56  83 48  83 46  82 44  80 43  76 42  73 42  70 44  68 46  66 160  67 169  68 172  69 173  76 176  78 175  81 174  83 171  84 128  134 128  134 144  133 156  132 166  130 174  128 180  125 186  120 191  114 196  106 202  93 206  76 208  66 207  56 206  48 203  44 202  37 198  31 193  29 190  25 185  22 179  18 159Z M150 14 L199 14  199 204  150 204Z M216 14 L264 14  264 39  216 39Z M216 48 L264 48  264 204  216 204Z M388 63 L388 64  390 168  389 182  388 187  385 194  379 200  377 202  370 205  354 206  348 205  344 203  337 199  329 190  329 226  281 226  281 48  330 48  329 62  335 55  339 52  343 49  347 48  351 46  359 45  365 46  372 48  378 51  382 54  385 58  387 61Z M333 73 L331 75  330 77  329 165  330 173  331 176  333 178  338 179  340 178  341 177  342 176  343 86  342 76  341 75  340 74  335 73Z M512 63 L513 64  515 168  513 182  512 187  510 194  504 200  501 202  495 205  479 206  473 205  469 203  462 199  453 190  453 226  406 226  406 48  454 48  453 62  460 55  464 52  467 49  471 48  475 46  484 45  489 46  497 48  503 51  507 54  509 58  512 61Z M458 73 L456 75  455 77  453 165  454 173  455 176  457 178  462 179  464 178  465 177  466 176  468 86  467 76  466 75  465 74  460 73Z M537 65 L539 63  548 54  563 48  582 45  591 46  600 47  607 50  614 53  620 57  625 62  629 66  632 72  636 87  638 129  576 129  577 168  577 174  578 176  580 178  584 179  586 179  589 178  591 176  593 139  638 139  638 158  637 169  636 172  634 178  627 189  624 193  621 196  614 200  606 204  584 207  577 206  570 205  564 204  557 202  552 199  547 196  543 193  539 188  536 184  534 180  531 172  529 101  530 91  531 83  533 75  535 69  537 66Z M583 73 L579 74  578 76  576 103  590 103  590 82  589 76  588 74  586 73Z M705 108 L703 110  702 114  701 204  653 204  653 48  701 48  699 69  701 63  704 59  708 55  711 52  717 48  722 47  729 45  729 100  723 100  717 101  713 102  709 104  707 106Z M831 24 L837 32  841 38  844 47  845 60  844 74  837 94  789 171  841 171  841 204  737 204  737 177  774 115  785 96  792 83  796 74  799 67  800 60  801 55  800 48  798 43  796 41  791 40  789 40  786 40  784 42  782 45  779 79  737 79  737 60  739 47  742 37  747 28  752 22  756 19  764 15  772 12  795 11  807 12  813 14  818 16  823 18  827 21Z M126 410 L123 414  116 419  107 422  18 424  18 234  74 234  87 235  97 236  105 238  111 240  116 242  120 245  124 250  127 254  129 258  131 265  133 380  131 397  130 403  128 407Z M79 389 L81 387  82 385  83 279  83 273  81 270  80 269  78 268  68 266  68 391  73 391  76 390Z M157 285 L158 283  167 274  182 268  201 265  210 266  219 267  227 270  234 273  240 277  245 282  248 286  251 292  255 307  257 349  196 349  196 388  197 394  197 396  199 398  203 399  205 399  208 398  210 396  212 359  257 359  257 378  256 389  255 392  253 398  247 409  243 413  240 416  233 420  225 424  203 427  196 426  189 425  183 424  176 422  171 419  166 416  162 413  158 408  155 404  153 400  150 392  148 321  149 311  150 303  152 295  154 289  156 286Z M202 293 L198 294  197 296  196 323  209 323  209 302  208 296  207 294  205 293Z M272 234 L321 234  321 424  272 424Z M339 292 L341 288  344 283  351 277  358 272  371 267  389 265  401 266  411 268  419 270  426 274  431 278  435 283  439 290  441 297  443 424  397 424  397 410  394 414  392 417  389 420  386 422  378 425  369 427  363 426  356 424  348 420  343 417  340 411  337 401  336 375  336 367  338 361  339 356  342 352  347 348  386 330  391 328  394 325  395 307  394 299  394 297  393 295  390 293  386 293  384 293  383 294  382 296  380 328  336 328  336 313  337 305  338 298Z M390 399 L393 398  394 397  395 350  390 354  386 357  383 362  382 365  380 383  381 392  382 395  383 397  385 398Z M518 397 L518 397  520 268  567 268  567 424  519 424  520 411  518 415  515 418  510 422  506 424  498 426  489 426  484 426  479 425  476 424  470 421  468 418  465 416  463 413  461 406  459 401  458 268  506 268  506 383  506 393  507 396  509 398  515 399  517 398  517 398Z M687 276 L688 279  692 286  694 424  646 424  646 308  645 296  645 295  642 293  638 293  636 293  634 295  633 296  632 424  584 424  584 268  633 268  632 283  635 278  638 275  641 272  644 270  652 266  662 265  667 266  673 267  677 269  681 271  685 274Z M711 292 L713 288  716 283  723 277  730 272  743 267  761 265  773 266  782 268  791 270  798 274  803 278  807 283  811 290  813 297  815 424  769 424  769 410  766 414  764 417  761 420  757 422  750 425  741 427  735 426  728 424  720 420  715 417  712 411  709 401  708 375  708 367  709 361  711 356  713 352  718 348  758 330  763 328  766 325  767 307  766 299  765 297  764 295  762 293  758 293  756 293  755 294  754 296  752 328  708 328  708 313  709 305  710 298Z M762 399 L764 398  766 397  767 350  762 354  758 357  755 362  754 365  752 383  753 392  754 395  755 397  757 398Z M906 431 L902 435  895 440  887 443  833 446  833 421  842 420  846 420  848 419  850 415  821 268  864 268  880 373  887 268  930 268  914 401  911 418  908 427Z M10 454 L118 454  118 492  89 492  89 644  39 644  39 492  10 492Z M179 548 L178 550  176 554  175 644  128 644  128 488  175 488  173 509  176 503  179 499  182 495  186 492  192 488  196 487  203 485  203 540  197 540  192 541  187 542  184 544  181 546Z M214 454 L262 454  262 479  214 479Z M214 488 L262 488  262 644  214 644Z M281 512 L283 508  286 503  292 497  300 492  312 487  331 485  342 486  352 488  360 490  367 494  372 498  377 503  380 510  382 517  384 644  338 644  338 630  336 634  333 637  330 640  327 642  319 645  310 647  304 646  297 644  289 640  285 637  281 631  278 621  277 595  278 587  279 581  281 576  283 572  288 568  327 550  332 548  335 545  336 527  336 519  335 517  334 515  332 513  328 513  326 513  324 514  323 516  322 548  277 548  277 533  278 525  279 518Z M331 619 L334 618  335 617  337 570  332 574  328 577  324 582  323 585  322 603  322 612  323 615  324 617  326 618Z M502 496 L504 499  507 506  509 644  462 644  462 528  461 516  460 515  458 513  454 513  452 513  450 515  449 516  448 644  400 644  400 488  448 488  448 503  450 498  453 495  457 492  460 490  468 486  477 485  483 486  488 487  493 489  497 491  501 494Z M633 620 L632 639  631 643  630 647  627 650  624 654  618 660  611 664  602 667  575 671  564 670  554 669  546 666  539 663  534 659  529 653  526 645  524 633  570 633  571 637  572 640  573 642  578 643  582 642  584 641  585 640  587 615  580 620  574 623  569 625  560 626  554 626  548 625  543 623  539 621  535 618  532 615  530 612  526 602  524 526  525 516  527 507  529 500  531 497  533 494  537 491  546 487  557 485  565 486  571 488  578 492  586 500  589 488  633 488Z M576 513 L575 514  573 516  572 587  572 594  573 595  574 597  578 598  580 598  583 597  585 594  586 524  585 518  584 515  583 514  578 513Z M709 617 L710 617  711 488  759 488  759 644  710 644  711 631  709 635  706 638  701 642  697 644  689 646  680 646  675 646  671 645  667 644  662 641  659 638  656 636  654 633  652 626  650 621  649 488  697 488  697 603  698 613  698 616  700 618  706 619  708 618  709 618Z M776 454 L824 454  824 644  776 644Z M843 512 L845 508  848 503  854 497  862 492  874 487  893 485  904 486  914 488  922 490  929 494  934 498  939 503  942 510  944 517  946 644  900 644  900 630  898 634  895 637  892 640  889 642  881 645  872 647  866 646  859 644  851 640  847 637  843 631  840 621  839 595  840 587  841 581  843 576  845 572  850 568  889 550  894 548  897 545  899 527  898 519  897 517  896 515  894 513  890 513  888 513  886 514  885 516  884 548  839 548  839 533  840 525  841 518Z M894 619 L896 618  897 617  899 570  894 574  890 577  886 582  885 585  884 603  884 612  885 615  886 617  888 618Z M968 630 L966 626  965 517  955 517  955 492  965 492  965 467  1012 467  1012 492  1025 492  1025 517  1012 517  1012 607  1013 615  1014 617  1027 619  1027 644  993 643  985 642  979 641  972 636  970 633Z M1035 454 L1084 454  1084 479  1035 479Z M1035 488 L1084 488  1084 644  1035 644Z M1112 633 L1110 632  1105 624  1102 614  1100 545  1100 535  1101 526  1103 518  1105 512  1108 506  1111 501  1116 497  1123 492  1135 487  1152 485  1160 486  1167 487  1174 488  1180 490  1185 493  1190 496  1194 499  1197 503  1203 510  1205 514  1206 519  1208 592  1207 607  1206 614  1203 621  1197 630  1193 634  1187 639  1179 642  1168 646  1154 647  1140 646  1134 645  1128 643  1123 641  1118 639  1114 636  1113 634Z M1157 619 L1158 618  1160 616  1161 525  1160 518  1159 515  1157 514  1153 513  1150 514  1148 516  1147 607  1147 611  1148 616  1149 617  1151 618  1155 619Z M1326 496 L1328 499  1331 506  1333 644  1286 644  1286 528  1285 516  1284 515  1282 513  1278 513  1276 513  1274 515  1273 516  1271 644  1224 644  1224 488  1272 488  1271 503  1274 498  1277 495  1280 492  1284 490  1292 486  1301 485  1307 486  1312 487  1317 489  1321 491  1324 494Z"
    style="fill:#000099; fill-opacity:0.13; fill-rule:nonzero; stroke:#000033; stroke-opacity:0.50; stroke-width:1.00;"/>
</svg>
