<?xml version="1.0" standalone="no"?>
<!DOCTYPE svg PUBLIC "-//W3C//DTD SVG 1.0//EN"
"http://www.w3.org/TR/2001/REC-SVG-20010904/DTD/svg10.dtd">

<svg width="450px" height="720px" viewBox="0 0 450 720" version="1.1" xmlns="http://www.w3.org/2000/svg">

 <path d=" M 176.12 709.35 L 164.15 706.36 L 153.68 700.38 L 147.70 688.41 L 149.20 677.94 L 150.69 665.97 L 155.18 655.50 L 158.17 646.53 L 150.69 646.53 L 143.21 645.03 L 134.24 645.03 L 125.26 643.54 L 120.78 646.53 L 116.29 655.50 L 108.81 659.99 L 95.35 661.49 L 83.38 661.49 L 69.92 661.49 L 56.46 659.99 L 43.00 659.99 L 29.54 658.50 L 16.08 657.00 L 10.09 646.53 L 14.58 633.07 L 22.06 622.60 L 32.53 613.62 L 40.01 607.64 L 43.00 598.67 L 40.01 591.19 L 32.53 585.21 L 23.56 576.23 L 16.08 565.76 L 13.09 552.30 L 11.59 538.84 L 13.09 525.38 L 14.58 511.91 L 14.58 498.45 L 17.57 486.49 L 19.07 473.03 L 20.56 459.56 L 23.56 446.10 L 29.54 434.14 L 37.02 423.67 L 44.50 414.69 L 53.47 404.22 L 62.44 395.25 L 71.42 386.27 L 81.89 375.80 L 90.86 366.83 L 101.33 356.36 L 110.31 347.38 L 120.78 338.41 L 131.25 329.44 L 141.72 320.46 L 152.19 311.49 L 162.66 307.00 L 174.62 304.01 L 188.09 299.52 L 198.56 292.04 L 204.54 280.08 L 207.53 266.62 L 212.02 254.65 L 216.50 241.19 L 223.98 230.72 L 220.99 221.74 L 213.51 209.78 L 207.53 200.80 L 200.05 191.83 L 192.57 184.35 L 185.09 175.38 L 177.62 167.90 L 170.14 158.92 L 162.66 146.96 L 156.68 133.50 L 149.20 120.03 L 143.21 106.57 L 137.23 93.11 L 131.25 79.65 L 125.26 66.19 L 119.28 52.73 L 116.29 43.75 L 114.79 34.78 L 120.78 22.81 L 128.26 15.33 L 138.73 12.34 L 150.69 10.85 L 164.15 13.84 L 176.12 18.32 L 188.09 25.80 L 198.56 34.78 L 209.03 43.75 L 218.00 54.22 L 226.97 64.69 L 234.45 76.66 L 240.44 88.62 L 247.91 100.59 L 253.90 112.56 L 259.88 124.52 L 265.86 136.49 L 273.34 146.96 L 277.83 134.99 L 279.32 121.53 L 280.82 108.07 L 280.82 93.11 L 283.81 79.65 L 286.80 66.19 L 291.29 55.72 L 295.78 43.75 L 300.26 33.28 L 306.25 22.81 L 319.71 19.82 L 328.68 28.79 L 333.17 42.26 L 333.17 55.72 L 334.67 70.68 L 334.67 84.14 L 334.67 97.60 L 334.67 109.56 L 336.16 120.03 L 336.16 132.00 L 336.16 143.97 L 342.15 143.97 L 354.11 146.96 L 364.58 149.95 L 375.05 155.93 L 384.03 163.41 L 390.01 172.38 L 395.99 181.36 L 401.97 191.83 L 406.46 202.30 L 413.94 214.26 L 421.42 227.73 L 428.90 239.69 L 434.88 248.67 L 437.87 259.14 L 437.87 271.10 L 436.38 283.07 L 433.38 293.54 L 427.40 304.01 L 419.92 311.49 L 410.95 320.46 L 406.46 330.93 L 403.47 339.91 L 407.96 353.37 L 412.44 366.83 L 415.44 380.29 L 416.93 395.25 L 418.43 410.21 L 416.93 423.67 L 415.44 438.62 L 410.95 452.09 L 407.96 465.55 L 403.47 479.01 L 398.98 492.47 L 394.50 505.93 L 391.50 519.39 L 388.51 534.35 L 387.02 547.81 L 385.52 562.77 L 384.03 576.23 L 385.52 589.69 L 390.01 603.15 L 394.50 615.12 L 400.48 627.09 L 406.46 639.05 L 412.44 651.02 L 419.92 662.98 L 427.40 676.44 L 430.39 689.91 L 424.41 698.88 L 412.44 698.88 L 400.48 700.38 L 390.01 698.88 L 379.54 698.88 L 369.07 697.38 L 358.60 692.90 L 349.62 685.42 L 343.64 674.95 L 339.15 664.48 L 336.16 657.00 L 333.17 649.52 L 321.21 648.03 L 310.74 648.03 L 298.77 648.03 L 286.80 646.53 L 274.84 646.53 L 264.37 645.03 L 252.40 643.54 L 238.94 643.54 L 235.95 651.02 L 232.96 658.50 L 229.97 671.96 L 232.96 682.43 L 234.45 694.39 L 234.45 706.36 L 225.48 710.85 L 215.01 710.85 L 206.03 710.85 L 191.08 710.85 L 176.12 709.35 L 176.12 709.35 z M 150.33 18.43 L 140.25 19.69 L 132.19 21.99 L 126.91 27.27 L 122.57 35.94 L 123.57 41.96 L 126.24 49.96 L 155.90 116.70 L 163.21 129.86 L 169.28 143.44 L 176.21 154.54 L 183.06 162.75 L 205.35 186.53 L 213.53 196.33 L 227.63 218.29 L 231.27 229.03 L 231.24 232.53 L 230.07 235.07 L 223.24 244.64 L 214.71 268.77 L 211.69 282.29 L 204.00 297.17 L 191.14 306.34 L 176.99 311.10 L 165.10 314.09 L 156.17 317.92 L 115.48 352.80 L 58.90 409.38 L 43.00 428.17 L 35.96 438.04 L 30.65 448.63 L 27.95 460.76 L 24.93 487.80 L 22.06 499.37 L 22.01 512.74 L 19.11 538.84 L 20.47 551.10 L 23.05 562.63 L 29.27 571.35 L 37.65 579.73 L 45.78 586.43 L 50.19 596.60 L 50.42 599.56 L 46.14 611.92 L 27.64 627.67 L 21.31 636.52 L 18.25 645.72 L 20.68 649.99 L 43.42 652.51 L 56.88 652.53 L 70.34 654.01 L 94.93 654.01 L 106.36 652.74 L 110.58 650.21 L 115.44 641.29 L 121.12 637.32 L 123.69 636.22 L 125.79 636.07 L 134.84 637.56 L 143.95 637.59 L 151.41 639.05 L 160.37 639.38 L 162.97 640.80 L 164.45 642.46 L 165.53 645.21 L 165.59 647.44 L 162.06 658.45 L 157.98 667.98 L 155.43 687.15 L 159.37 695.01 L 166.97 699.36 L 177.35 701.95 L 191.53 703.37 L 223.71 703.37 L 226.97 701.74 L 226.97 694.84 L 225.61 683.95 L 222.61 673.29 L 222.67 670.34 L 225.81 656.28 L 232.30 640.08 L 234.75 637.35 L 238.19 636.09 L 252.87 636.07 L 275.38 639.05 L 287.27 639.07 L 299.22 640.55 L 321.67 640.56 L 335.50 642.42 L 338.02 643.82 L 339.81 646.08 L 350.39 671.67 L 355.44 680.54 L 362.52 686.44 L 371.13 690.12 L 380.08 691.40 L 390.53 691.42 L 400.55 692.84 L 411.98 691.42 L 420.42 691.40 L 422.41 688.41 L 420.34 679.14 L 405.76 654.37 L 387.50 617.75 L 378.28 591.55 L 376.55 575.96 L 381.08 533.53 L 384.21 517.78 L 387.41 503.57 L 400.73 463.57 L 403.65 450.47 L 408.06 437.11 L 410.90 410.19 L 408.02 381.40 L 405.22 368.80 L 396.38 342.27 L 396.07 338.87 L 399.58 327.99 L 404.76 316.27 L 421.43 299.39 L 426.43 290.64 L 429.03 281.54 L 430.39 270.65 L 430.39 260.18 L 428.00 251.82 L 415.08 231.69 L 400.12 206.26 L 395.23 195.10 L 389.62 185.28 L 378.40 168.47 L 370.77 162.09 L 361.68 156.90 L 341.23 151.44 L 333.99 151.12 L 331.42 149.75 L 329.57 147.50 L 328.68 143.97 L 328.68 120.57 L 327.20 110.09 L 327.19 71.12 L 325.72 56.47 L 325.69 43.45 L 322.16 32.86 L 317.32 28.02 L 311.09 29.39 L 307.01 36.56 L 293.94 68.54 L 288.30 93.92 L 288.28 108.49 L 285.17 136.43 L 279.65 150.97 L 276.87 153.55 L 273.16 154.44 L 270.19 153.73 L 267.73 151.91 L 259.46 140.35 L 241.39 104.25 L 234.09 92.59 L 227.93 80.32 L 220.93 69.13 L 203.72 49.06 L 183.64 31.85 L 172.78 25.07 L 162.00 21.02 z M 149.97 26.01 L 141.78 27.03 L 136.12 28.65 L 133.04 31.73 L 130.35 37.11 L 133.19 47.19 L 162.60 113.36 L 169.75 126.23 L 175.88 139.88 L 182.30 150.16 L 188.61 157.73 L 210.81 181.42 L 219.82 192.29 L 234.50 215.33 L 238.52 227.23 L 238.60 233.84 L 236.55 238.82 L 229.92 248.16 L 221.92 270.80 L 218.60 285.15 L 209.41 302.33 L 194.20 313.16 L 179.37 318.19 L 167.52 321.19 L 160.15 324.35 L 120.66 358.21 L 64.36 414.51 L 48.85 432.84 L 42.39 441.88 L 37.74 451.16 L 35.34 461.94 L 32.37 488.64 L 29.54 500.28 L 29.48 513.17 L 26.64 538.84 L 27.86 549.88 L 30.02 559.54 L 34.95 566.45 L 42.75 574.24 L 51.96 582.21 L 57.28 594.21 L 57.90 599.76 L 52.32 616.14 L 33.20 632.75 L 28.03 639.99 L 26.98 643.16 L 43.84 645.03 L 57.30 645.06 L 70.76 646.53 L 94.51 646.53 L 103.91 645.48 L 105.00 644.84 L 110.10 636.06 L 117.28 630.90 L 121.94 628.96 L 126.42 628.63 L 135.42 630.08 L 144.68 630.14 L 152.28 631.59 L 162.69 632.28 L 167.62 634.94 L 170.82 638.54 L 172.71 643.10 L 173.07 647.25 L 169.18 660.74 L 165.26 669.98 L 163.15 685.87 L 165.04 689.64 L 169.81 692.36 L 178.57 694.54 L 191.97 695.89 L 219.50 695.89 L 218.27 685.43 L 215.13 673.14 L 215.37 668.71 L 218.66 654.07 L 226.32 635.60 L 230.86 630.96 L 238.18 628.61 L 253.36 628.61 L 275.91 631.57 L 287.73 631.60 L 299.65 633.07 L 322.16 633.10 L 337.87 635.33 L 342.86 638.12 L 346.08 642.00 L 357.12 668.38 L 361.26 675.67 L 366.45 679.99 L 373.17 682.85 L 380.63 683.92 L 391.07 683.95 L 400.63 685.30 L 413.75 683.94 L 413.30 681.92 L 399.31 658.17 L 380.44 620.24 L 371.06 593.49 L 369.07 575.71 L 373.65 532.74 L 376.91 516.13 L 380.32 501.21 L 393.51 461.60 L 396.54 448.12 L 400.72 435.50 L 403.38 410.24 L 400.60 382.50 L 398.00 370.78 L 389.13 344.08 L 388.75 337.30 L 392.60 325.32 L 398.22 312.64 L 415.44 294.82 L 419.47 287.75 L 421.69 279.99 L 422.91 270.21 L 422.91 261.26 L 421.10 254.93 L 408.63 235.49 L 393.67 210.06 L 388.51 198.43 L 383.31 189.30 L 372.78 173.52 L 366.45 168.23 L 358.82 163.87 L 340.05 158.86 L 331.09 158.01 L 326.14 155.05 L 322.75 150.56 L 321.24 144.58 L 321.21 121.10 L 319.74 110.61 L 319.71 71.57 L 318.27 57.21 L 318.21 44.66 L 315.49 36.78 L 313.76 39.82 L 301.09 70.79 L 295.78 94.73 L 295.72 109.31 L 292.37 138.49 L 286.64 153.61 L 285.23 155.95 L 280.06 160.31 L 272.82 161.90 L 267.03 160.51 L 262.68 157.41 L 253.37 144.70 L 234.87 107.92 L 227.75 96.55 L 221.41 84.00 L 214.92 73.64 L 198.41 54.37 L 179.14 37.86 L 169.46 31.82 L 159.85 28.20 z M 149.62 33.60 L 140.06 35.30 L 138.34 37.87 L 140.24 44.62 L 169.30 110.03 L 176.28 122.59 L 182.49 136.35 L 188.38 145.78 L 194.16 152.70 L 216.26 176.30 L 225.58 187.52 L 240.81 211.30 L 245.78 225.41 L 245.94 235.25 L 243.23 242.19 L 236.62 251.64 L 229.11 272.87 L 225.48 288.08 L 214.80 307.52 L 197.28 319.98 L 181.76 325.28 L 169.93 328.30 L 164.12 330.78 L 125.83 363.63 L 69.82 419.64 L 54.77 437.43 L 48.80 445.77 L 44.82 453.69 L 42.73 463.14 L 39.80 489.46 L 37.02 501.21 L 36.94 513.60 L 34.16 538.84 L 35.25 548.65 L 36.99 556.41 L 40.67 561.57 L 58.15 578.03 L 64.39 591.89 L 65.38 599.59 L 64.97 602.17 L 58.53 620.31 L 39.66 637.05 L 57.72 637.60 L 71.15 639.05 L 94.09 639.05 L 100.11 638.38 L 105.24 630.38 L 113.88 624.23 L 121.39 621.49 L 126.45 621.15 L 136.08 622.60 L 145.41 622.69 L 153.21 624.15 L 165.07 625.19 L 173.22 629.97 L 177.48 635.12 L 180.05 641.70 L 180.41 648.65 L 176.22 663.24 L 172.54 671.93 L 170.90 684.37 L 172.62 685.36 L 179.89 687.17 L 192.27 688.41 L 211.09 688.41 L 207.66 672.74 L 208.07 667.07 L 211.75 651.21 L 220.50 630.90 L 227.24 624.41 L 238.18 621.13 L 253.85 621.15 L 276.44 624.09 L 288.19 624.14 L 300.09 625.59 L 322.70 625.63 L 340.26 628.24 L 347.65 632.38 L 352.27 637.81 L 363.82 665.03 L 367.09 670.81 L 370.38 673.53 L 375.20 675.58 L 381.18 676.44 L 391.61 676.49 L 402.09 677.63 L 392.61 661.50 L 373.54 623.14 L 363.83 595.42 L 361.59 575.45 L 366.21 531.94 L 369.56 514.70 L 373.23 498.84 L 386.27 459.68 L 389.25 446.48 L 393.37 433.88 L 395.86 410.28 L 393.18 383.61 L 390.80 372.89 L 381.84 345.80 L 381.33 336.35 L 385.61 322.66 L 391.67 309.02 L 409.41 290.29 L 412.52 284.85 L 414.34 278.46 L 415.44 269.76 L 415.44 262.34 L 414.21 258.03 L 402.18 239.29 L 387.23 213.86 L 381.81 201.78 L 377.00 193.32 L 367.14 178.55 L 362.17 174.39 L 355.97 170.84 L 338.75 166.25 L 327.83 164.74 L 321.15 160.61 L 316.00 153.79 L 313.79 145.21 L 313.73 121.60 L 312.28 111.13 L 312.23 72.02 L 311.53 65.02 L 308.24 73.05 L 303.26 95.55 L 303.15 110.16 L 299.70 139.96 L 293.64 156.26 L 290.51 161.24 L 283.69 166.85 L 274.42 169.20 L 271.73 169.30 L 263.93 167.31 L 257.86 163.14 L 247.33 149.11 L 228.31 111.54 L 221.41 100.51 L 214.89 87.68 L 208.88 78.08 L 193.10 59.68 L 174.70 43.90 L 166.13 38.55 L 157.69 35.38 z M 149.47 41.22 L 147.16 41.63 L 147.28 42.06 L 176.00 106.69 L 183.10 119.51 L 189.12 132.85 L 194.46 141.39 L 199.71 147.68 L 221.72 171.19 L 231.63 183.11 L 247.41 207.77 L 253.13 224.09 L 253.30 236.57 L 249.96 245.45 L 243.32 255.13 L 236.29 274.99 L 232.33 291.09 L 220.15 312.74 L 200.37 326.79 L 184.17 332.35 L 172.41 335.37 L 168.13 337.20 L 130.92 369.13 L 75.29 424.76 L 60.69 442.02 L 55.24 449.65 L 51.91 456.24 L 50.12 464.34 L 47.17 490.74 L 44.50 502.13 L 44.38 514.43 L 41.68 538.84 L 42.64 547.42 L 43.96 553.32 L 46.31 556.61 L 64.24 573.69 L 71.81 590.93 L 72.85 599.34 L 72.02 604.66 L 65.29 623.51 L 64.03 625.38 L 58.68 630.18 L 71.54 631.57 L 95.74 631.33 L 99.82 625.22 L 109.54 618.14 L 120.88 614.03 L 127.01 613.68 L 136.62 615.12 L 146.15 615.24 L 154.18 616.74 L 167.65 618.17 L 177.00 623.53 L 178.98 625.20 L 183.93 631.32 L 187.37 640.13 L 187.74 650.12 L 183.42 665.30 L 179.84 673.87 L 179.13 679.27 L 181.10 679.76 L 192.72 680.93 L 201.80 680.93 L 200.19 672.91 L 200.78 665.38 L 204.64 648.88 L 213.96 627.28 L 223.79 617.78 L 237.46 613.68 L 254.35 613.68 L 276.96 616.62 L 288.66 616.68 L 300.52 618.11 L 323.25 618.17 L 342.68 621.16 L 352.41 626.61 L 358.43 633.56 L 370.50 661.65 L 372.93 665.93 L 377.22 668.31 L 381.77 668.97 L 388.35 669.00 L 366.48 625.60 L 356.61 597.35 L 354.11 575.20 L 358.78 531.15 L 362.22 513.28 L 366.14 496.48 L 379.03 457.77 L 381.95 444.83 L 386.03 432.30 L 388.35 410.25 L 385.79 384.84 L 383.61 374.94 L 374.56 347.50 L 374.02 334.76 L 378.61 320.03 L 385.12 305.41 L 403.37 285.79 L 405.56 281.93 L 407.00 276.94 L 407.96 269.31 L 407.96 263.38 L 407.31 261.14 L 395.74 243.09 L 380.78 217.66 L 375.16 205.20 L 370.62 197.24 L 361.51 183.59 L 357.90 180.55 L 353.11 177.81 L 337.25 173.60 L 326.04 172.01 L 316.64 166.58 L 309.27 157.04 L 306.55 147.08 L 306.31 143.65 L 300.65 158.86 L 296.84 165.22 L 286.77 173.67 L 275.75 176.56 L 270.57 176.69 L 260.84 174.12 L 253.13 168.94 L 240.97 153.06 L 221.78 115.22 L 215.07 104.48 L 208.34 91.30 L 202.88 82.58 L 187.79 64.99 L 170.20 49.91 L 162.79 45.28 L 155.54 42.56 z M 160.06 52.38 L 182.73 103.43 L 189.93 116.44 L 195.73 129.31 L 200.50 136.95 L 205.36 142.77 L 227.18 166.07 L 237.67 178.70 L 254.00 204.24 L 260.49 222.79 L 260.67 237.85 L 256.46 249.18 L 250.04 258.55 L 243.46 277.15 L 239.15 294.15 L 225.49 317.99 L 203.46 333.59 L 186.59 339.43 L 172.13 343.63 L 136.11 374.53 L 80.77 429.87 L 66.62 446.61 L 61.67 453.52 L 59.00 458.82 L 57.51 465.53 L 54.55 492.01 L 51.96 503.04 L 51.81 515.25 L 49.21 538.84 L 50.93 550.22 L 70.36 569.40 L 78.91 588.60 L 80.33 599.12 L 79.41 605.83 L 73.02 624.08 L 91.70 623.90 L 94.90 619.58 L 105.73 611.71 L 119.75 606.64 L 127.36 606.22 L 137.28 607.64 L 146.88 607.79 L 170.68 611.34 L 180.73 617.03 L 184.79 620.49 L 190.58 627.89 L 194.34 637.41 L 194.85 639.84 L 195.07 651.60 L 190.61 667.35 L 188.31 672.97 L 192.74 673.42 L 193.40 664.22 L 197.54 646.53 L 207.10 624.32 L 208.77 621.90 L 218.60 612.40 L 221.63 610.62 L 236.74 606.24 L 254.35 606.21 L 277.47 609.14 L 289.12 609.21 L 300.94 610.63 L 323.84 610.72 L 345.12 614.09 L 356.79 620.55 L 349.38 599.28 L 346.63 575.50 L 351.34 530.36 L 358.85 494.77 L 371.79 455.85 L 374.65 443.19 L 378.69 430.74 L 380.84 410.22 L 378.40 386.06 L 376.40 376.99 L 367.27 349.18 L 366.60 333.79 L 371.61 317.40 L 378.88 301.29 L 397.29 281.35 L 398.61 279.03 L 400.48 268.86 L 400.42 264.25 L 389.29 246.89 L 374.33 221.46 L 368.41 208.45 L 364.31 201.25 L 355.89 188.63 L 353.62 186.71 L 350.25 184.78 L 335.76 180.94 L 322.93 178.82 L 311.72 172.21 L 305.81 164.80 L 302.10 170.53 L 291.05 179.80 L 288.67 180.91 L 277.08 183.92 L 269.36 184.07 L 258.32 181.16 L 248.47 174.79 L 234.65 157.04 L 215.26 118.90 L 208.73 108.44 L 201.86 95.06 L 196.84 87.02 L 182.49 70.30 L 165.75 55.96 z M 306.01 177.02 L 294.21 186.58 L 290.56 188.15 L 277.81 191.37 L 267.46 191.31 L 255.86 188.22 L 250.62 185.08 L 260.85 201.24 L 267.55 220.32 L 268.05 239.14 L 263.23 252.35 L 256.75 261.99 L 250.65 279.22 L 245.96 297.26 L 231.24 322.78 L 206.56 340.40 L 189.03 346.50 L 175.76 350.36 L 141.30 379.93 L 86.24 434.99 L 72.44 451.32 L 68.13 457.32 L 66.09 461.37 L 64.90 466.74 L 61.92 493.28 L 59.42 503.96 L 59.24 516.07 L 56.75 538.70 L 57.94 546.65 L 76.50 565.13 L 86.00 586.22 L 87.80 599.46 L 86.68 607.58 L 83.59 616.50 L 87.90 616.45 L 90.50 613.52 L 103.19 604.68 L 117.89 599.40 L 126.96 598.76 L 137.87 600.16 L 147.99 600.39 L 173.11 604.26 L 184.42 610.53 L 189.64 614.79 L 196.48 623.29 L 198.05 626.43 L 200.56 620.70 L 203.07 617.05 L 214.32 606.26 L 218.97 603.63 L 236.02 598.79 L 254.81 598.74 L 277.96 601.66 L 289.60 601.75 L 301.36 603.15 L 324.44 603.27 L 343.93 606.32 L 341.95 600.13 L 339.15 575.27 L 343.96 529.19 L 351.63 492.81 L 364.55 453.94 L 367.53 440.88 L 371.34 429.14 L 373.33 410.19 L 371.01 387.29 L 369.19 378.99 L 359.99 350.85 L 359.18 332.85 L 364.61 314.76 L 372.33 297.67 L 391.19 276.94 L 392.97 266.50 L 382.84 250.69 L 367.89 225.26 L 361.71 211.78 L 358.00 205.26 L 350.25 193.65 L 347.35 191.74 L 334.20 188.25 L 320.37 185.85 L 306.32 177.38 z M 180.04 78.95 L 189.42 100.04 L 196.48 112.82 L 202.35 125.81 L 206.54 132.51 L 211.01 137.86 L 223.03 150.68 L 208.71 122.52 L 202.38 112.41 L 195.35 98.75 L 190.82 91.53 z M 306.53 186.24 L 298.37 192.80 L 292.95 195.24 L 279.03 198.74 L 267.93 198.78 L 274.97 219.35 L 275.29 241.02 L 270.02 255.47 L 263.49 265.39 L 257.83 281.35 L 252.75 300.40 L 236.98 327.57 L 210.31 346.88 L 191.12 353.68 L 179.40 357.09 L 146.49 385.33 L 91.72 440.10 L 78.33 455.94 L 74.54 461.21 L 73.20 463.90 L 72.29 467.96 L 69.29 494.55 L 66.89 504.88 L 66.68 516.90 L 64.28 538.58 L 64.96 543.09 L 81.78 559.84 L 83.32 562.07 L 93.09 583.81 L 95.20 598.46 L 95.10 601.21 L 100.05 597.89 L 116.68 592.03 L 127.16 591.28 L 138.44 592.70 L 148.64 592.94 L 176.15 597.43 L 188.61 604.34 L 194.76 609.35 L 197.27 612.34 L 209.61 600.46 L 215.29 597.13 L 235.32 591.34 L 255.27 591.28 L 278.44 594.18 L 290.08 594.28 L 301.76 595.68 L 325.03 595.82 L 334.10 597.22 L 331.68 575.03 L 336.57 528.02 L 344.40 490.85 L 357.36 451.91 L 360.41 438.58 L 364.00 427.54 L 365.82 410.16 L 363.62 388.49 L 361.98 380.96 L 352.71 352.53 L 351.76 331.92 L 357.61 312.15 L 365.78 294.06 L 384.19 273.53 L 385.10 268.10 L 376.40 254.49 L 361.44 229.06 L 355.04 215.19 L 344.85 199.04 L 332.74 195.60 L 319.08 193.22 L 316.51 192.25 z M 307.15 195.33 L 302.00 199.34 L 295.40 202.30 L 278.38 206.22 L 282.42 218.65 L 282.51 242.94 L 276.83 258.57 L 270.23 268.72 L 265.00 283.53 L 259.52 303.57 L 242.74 332.34 L 214.10 353.32 L 193.62 360.73 L 183.03 363.82 L 151.68 390.73 L 97.19 445.22 L 80.96 465.10 L 79.68 469.21 L 76.67 495.82 L 74.35 505.80 L 74.11 517.72 L 72.00 539.54 L 87.06 554.54 L 89.85 558.39 L 100.17 581.39 L 101.47 589.45 L 116.14 584.56 L 127.37 583.80 L 138.98 585.24 L 149.33 585.49 L 178.60 590.37 L 192.24 597.80 L 197.39 601.84 L 204.87 594.69 L 212.06 590.38 L 234.60 583.89 L 255.72 583.81 L 278.92 586.70 L 290.56 586.82 L 302.16 588.20 L 325.62 588.38 L 324.20 574.79 L 329.18 526.86 L 337.18 488.90 L 350.15 449.90 L 353.12 436.90 L 356.64 425.99 L 358.31 410.13 L 356.24 389.68 L 354.75 382.94 L 345.30 353.55 L 344.43 330.41 L 350.60 309.54 L 359.32 290.31 L 377.25 269.70 L 354.99 232.86 L 348.46 218.77 L 340.05 205.46 L 331.11 202.91 L 317.11 200.43 L 312.65 198.65 z M 307.68 204.38 L 305.60 205.89 L 297.78 209.39 L 288.03 211.66 L 289.90 218.62 L 289.99 242.91 L 289.54 245.50 L 283.65 261.65 L 276.99 272.04 L 272.13 285.76 L 266.28 306.76 L 248.29 337.35 L 217.93 359.75 L 196.16 367.76 L 186.68 370.55 L 156.87 396.13 L 102.65 450.35 L 87.66 468.70 L 84.04 497.09 L 81.81 506.72 L 81.56 518.44 L 79.79 536.74 L 92.75 549.68 L 96.32 554.65 L 107.42 579.60 L 115.00 577.17 L 126.87 576.34 L 139.47 577.77 L 150.03 578.04 L 180.44 583.11 L 196.91 591.95 L 200.56 588.57 L 209.38 583.40 L 233.88 576.44 L 256.17 576.35 L 279.40 579.22 L 291.04 579.36 L 302.70 580.72 L 317.32 580.84 L 316.76 574.02 L 321.79 525.69 L 329.96 486.94 L 342.94 447.90 L 346.00 434.62 L 349.28 424.41 L 350.81 410.10 L 348.85 390.87 L 347.54 384.94 L 337.88 354.50 L 337.01 329.48 L 343.58 306.94 L 352.84 286.58 L 368.04 268.90 L 348.59 236.73 L 341.88 222.36 L 335.25 211.87 L 329.36 210.20 L 315.06 207.62 L 308.79 205.05 z M 308.22 212.90 L 300.18 216.48 L 297.24 217.20 L 297.47 242.88 L 296.57 248.05 L 290.47 264.72 L 283.74 275.38 L 279.29 287.90 L 273.03 309.98 L 253.84 342.36 L 221.78 366.17 L 198.75 374.77 L 190.33 377.28 L 162.06 401.53 L 108.11 455.48 L 94.81 471.77 L 91.46 498.03 L 89.28 507.65 L 89.01 519.15 L 87.59 533.95 L 98.45 544.84 L 102.40 550.28 L 111.53 570.44 L 114.48 569.71 L 127.03 568.86 L 140.01 570.31 L 151.26 570.67 L 182.27 575.86 L 195.76 582.84 L 206.74 576.40 L 233.18 568.99 L 256.62 568.89 L 279.86 571.74 L 291.51 571.89 L 303.21 573.24 L 309.33 573.30 L 314.47 524.15 L 322.73 484.98 L 335.73 445.88 L 338.88 432.33 L 341.94 422.84 L 343.30 410.07 L 341.46 392.05 L 340.35 386.99 L 330.46 355.45 L 329.69 327.97 L 336.57 304.34 L 346.03 283.49 L 358.84 268.14 L 342.19 240.60 L 335.29 225.96 L 330.45 218.29 L 312.22 214.55 z M 308.34 221.04 L 304.77 222.63 L 304.84 244.15 L 303.60 250.63 L 297.50 267.29 L 290.50 278.70 L 286.44 290.08 L 279.76 313.22 L 259.87 346.79 L 225.66 372.57 L 201.37 381.77 L 194.02 383.99 L 167.15 407.03 L 113.57 460.61 L 101.96 474.84 L 98.88 498.98 L 96.74 508.59 L 96.46 519.87 L 95.37 531.16 L 104.15 539.99 L 108.45 545.88 L 115.96 562.11 L 127.19 561.38 L 140.52 562.84 L 152.50 563.29 L 184.08 568.60 L 195.53 574.30 L 204.10 569.40 L 232.48 561.54 L 257.05 561.42 L 280.33 564.26 L 292.37 564.46 L 302.61 565.64 L 307.04 523.37 L 315.42 483.44 L 328.52 443.89 L 331.60 430.64 L 334.59 421.27 L 335.79 410.04 L 334.07 393.23 L 333.14 388.98 L 323.15 357.02 L 322.33 326.64 L 329.55 301.74 L 339.23 280.39 L 349.68 267.45 L 335.79 244.48 L 328.76 229.63 L 325.83 224.97 L 309.37 221.46 z M 312.28 229.73 L 312.29 244.84 L 310.94 252.03 L 304.53 269.86 L 297.29 281.92 L 293.53 292.46 L 286.49 316.48 L 265.44 351.77 L 229.58 378.94 L 204.01 388.77 L 197.69 390.70 L 172.32 412.45 L 119.03 465.74 L 109.11 477.90 L 106.30 499.92 L 104.21 509.49 L 103.16 528.38 L 109.83 535.13 L 114.50 541.47 L 120.60 554.32 L 127.36 553.90 L 141.00 555.37 L 153.74 555.92 L 186.04 561.38 L 195.29 565.82 L 202.12 562.19 L 231.78 554.09 L 257.49 553.96 L 280.79 556.79 L 295.97 557.34 L 299.73 521.83 L 308.10 481.90 L 321.32 441.81 L 324.32 428.95 L 327.23 419.73 L 328.28 410.01 L 325.92 390.93 L 315.84 358.59 L 314.97 325.31 L 322.75 298.65 L 332.71 276.74 L 340.56 266.84 L 329.39 248.35 L 321.18 231.63 z M 319.72 245.65 L 318.17 253.99 L 311.56 272.39 L 304.08 285.13 L 300.67 294.72 L 293.46 319.19 L 271.47 356.19 L 233.51 385.30 L 201.37 397.39 L 177.50 417.86 L 124.49 470.87 L 116.26 480.97 L 113.72 500.86 L 111.64 510.48 L 110.80 525.47 L 115.51 530.27 L 120.52 537.04 L 125.19 546.54 L 154.99 548.54 L 187.97 554.15 L 195.13 557.44 L 200.14 554.98 L 231.09 546.65 L 257.92 546.50 L 281.25 549.31 L 289.27 549.61 L 292.41 520.29 L 300.88 479.95 L 314.13 439.73 L 317.18 426.69 L 319.89 418.13 L 320.76 410.06 L 318.59 392.51 L 308.40 359.47 L 307.49 325.50 L 315.73 296.05 L 326.17 273.11 L 331.47 266.26 L 322.67 251.64 z M 305.66 304.25 L 300.19 322.47 L 276.57 361.67 L 237.46 391.66 L 205.26 403.91 L 182.58 423.37 L 130.02 475.93 L 123.41 484.05 L 121.14 501.80 L 119.07 511.54 L 118.44 522.58 L 126.54 532.60 L 129.99 539.36 L 156.24 541.17 L 189.22 546.78 L 195.01 549.16 L 198.20 547.75 L 230.40 539.20 L 258.35 539.03 L 282.59 541.87 L 285.10 518.75 L 293.65 478.01 L 306.92 437.74 L 309.90 424.98 L 312.54 416.55 L 313.23 410.12 L 311.26 394.11 L 300.97 360.35 L 300.28 323.48 z M 311.59 287.12 L 310.90 288.29 L 310.35 289.83 z M 322.10 265.19 L 321.46 266.96 L 322.42 265.72 z M 293.26 348.45 L 281.66 367.16 L 241.41 398.00 L 209.15 410.43 L 187.77 428.77 L 135.56 480.98 L 130.56 487.13 L 128.56 502.76 L 126.51 512.54 L 126.07 520.13 L 132.35 527.90 L 134.72 532.18 L 157.50 533.80 L 190.48 539.41 L 194.91 541.04 L 229.73 531.75 L 258.77 531.57 L 275.97 533.56 L 277.78 517.21 L 286.43 476.06 L 299.70 435.75 L 305.19 415.01 L 305.71 410.18 L 303.91 395.68 L 293.49 360.49 z M 288.57 370.21 L 286.21 373.10 L 245.37 404.34 L 213.02 416.97 L 192.96 434.17 L 141.03 486.10 L 137.71 490.18 L 133.70 517.67 L 139.31 525.00 L 158.75 526.42 L 191.74 532.03 L 195.26 533.20 L 229.05 524.30 L 258.73 524.09 L 269.36 525.26 L 270.47 515.67 L 279.21 474.12 L 292.55 433.55 L 297.81 413.66 L 298.19 410.22 L 296.57 397.21 z M 284.75 383.63 L 249.34 410.68 L 216.91 423.47 L 198.14 439.58 L 144.81 493.29 L 141.55 515.64 L 143.20 517.78 L 160.01 519.05 L 195.50 525.39 L 228.38 516.85 L 258.67 516.61 L 262.78 517.01 L 271.98 472.17 L 285.40 431.35 L 290.44 412.31 L 290.66 410.28 L 289.23 398.72 z M 280.67 396.16 L 253.31 417.03 L 220.83 429.96 L 203.24 445.06 L 151.86 496.81 L 149.82 510.78 L 161.33 511.69 L 195.19 517.75 L 227.09 509.48 L 256.75 509.15 L 264.76 470.24 L 278.25 429.14 L 283.06 410.98 L 281.88 400.23 z M 275.39 409.59 L 256.69 423.70 L 224.73 436.47 L 208.34 450.53 L 158.90 500.32 L 158.38 503.96 L 194.89 510.10 L 225.81 502.10 L 250.64 501.73 L 257.53 468.31 L 271.10 426.94 L 275.48 410.43 z M 262.71 428.53 L 259.48 430.64 L 228.69 442.95 L 213.33 456.11 L 171.21 498.54 L 194.56 502.46 L 224.52 494.74 L 244.52 494.34 L 250.43 465.98 z M 250.31 442.36 L 232.63 449.42 L 218.42 461.60 L 186.69 493.56 L 194.23 494.82 L 223.22 487.38 L 238.42 486.98 L 243.32 463.65 z M 238.21 455.24 L 236.58 455.90 L 223.50 467.09 L 206.86 483.87 L 221.90 480.03 L 232.31 479.65 L 236.22 461.31 z"
 style="fill:#80FF9C; fill-opacity:1.00; fill-rule:evenodd; stroke:#003300; stroke-opacity:1.00; stroke-width:0.80;"/>

</svg>
