<?xml version="1.0" encoding="UTF-8" standalone="no"?>
<svg
   xmlns:svg="http://www.w3.org/2000/svg"
   xmlns="http://www.w3.org/2000/svg"
   version="1.1"
   width="300"
   height="480"
   viewBox="0 0 300 400">
   <path d="M88.4,397.4 L82.2,393.7, 78.9,387.5, 79.4,381.0, 81.0,374.6, 85.2,363.5, 66.1,361.1, 63.7,363.3, 61.3,368.0, 56.9,371.0, 49.3,371.5, 26.6,371.0, 11.4,370.0, 3.9,369.0, 0,362.9, 2.4,355.6, 7.1,349.5, 16.9,340.6, 18.7,335.7, 17.2,331.2, 7.5,323.2, 3.3,316.9, 1.5,309.4, 1.3,301.7, 1.7,294.0, 3.2,278.8, 6.3,256.1, 7.7,248.5, 10.9,241.9, 15.3,236.0, 30.1,219.5, 41.0,208.4, 63.6,186.9, 75.3,176.5, 81.5,171.7, 87.8,169.0, 101.6,164.6, 107.9,160.3, 111.1,153.3, 115.7,138.7, 118.5,131.6, 122.2,125.0, 121.0,120.3, 113.1,107.9, 95.8,89.3, 91.8,84.5, 87.7,77.0, 80.1,61.9, 65.6,31.2, 62.4,23.4, 61.1,18.5, 60.4,13.4, 63.3,6.2, 68.1,2.2, 74.0,0.2, 80.2,0, 87.9,1.3, 95.1,4.3, 101.8,8.4, 107.9,13.2, 113.6,18.5, 119.0,24.3, 123.9,30.5, 128.3,37.0, 132.3,43.8, 146.8,71.1, 150.6,77.6, 153.1,70.5, 154.1,62.7, 155.2,47.0, 156.4,39.1, 158.8,31.4, 163.5,18.7, 166.2,12.5, 169.7,6.7, 176.8,5.0, 182.5,9.9, 184.6,17.6, 185.3,25.5, 185.9,41.4, 186.5,75.5, 196.9,77.2, 203.0,79.3, 208.7,82.3, 213.6,86.5, 217.4,91.8, 235.0,123.3, 243.0,135.6, 244.4,141.9, 244.4,148.4, 243.7,154.9, 242.3,161.3, 238.9,167.0, 229.4,176.6, 226.7,182.8, 225.2,188.2, 230.0,203.2, 231.8,211.3, 232.9,219.4, 233.4,227.6, 233.1,235.9, 231.8,244.0, 220.4,282.8, 217.0,298.9, 214.7,315.1, 214.3,322.8, 215.2,330.5, 217.1,338.1, 219.8,345.3, 223.1,352.3, 238.8,380.1, 241.0,387.9, 237.0,392.7, 230.4,393.4, 217.5,393.5, 211.4,393.1, 205.4,391.8, 199.2,389.7, 194.1,385.6, 191,379.8, 184.8,364.6, 158.6,363.2, 138.5,361.7, 130.7,361.4, 129.1,365.6, 125.6,377.7, 127.3,383.6, 128.8,390.4, 128.5,397.2, 123.4,399.6, 117.6,400, 103.6,399.8, 95.3,399.2Z"
   style="fill:white;stroke:#000000;stroke-opacity:1"/>
</svg>
