<svg width="1350px" height="470px" viewBox="0 0 1350 470" version="1.1" xmlns="http://www.w3.org/2000/svg">
  <path d="M17 70 L18 50  19 45  21 40  24 35  29 28  35 22  43 17  54 13  75 10  85 11  94 12  103 15  111 18  117 23  122 28  126 33  128 37  132 52  134 97  84 97  84 56  83 48  83 46  82 44  80 43  76 42  73 42  70 44  68 46  66 160  67 169  68 172  69 173  76 176  78 175  81 174  83 171  84 128  134 128  134 144  133 156  132 166  130 174  128 180  125 186  120 191  114 196  106 202  93 206  76 208  66 207  56 206  48 203  44 202  37 198  31 193  29 190  25 185  22 179  18 159Z M150 14 L199 14  199 204  150 204Z M216 14 L264 14  264 39  216 39Z M216 48 L264 48  264 204  216 204Z M388 63 L388 64  390 168  389 182  388 187  385 194  379 200  377 202  370 205  354 206  348 205  344 203  337 199  329 190  329 226  281 226  281 48  330 48  329 62  335 55  339 52  343 49  347 48  351 46  359 45  365 46  372 48  378 51  382 54  385 58  387 61Z M333 73 L331 75  330 77  329 165  330 173  331 176  333 178  338 179  340 178  341 177  342 176  343 86  342 76  341 75  340 74  335 73Z M512 63 L513 64  515 168  513 182  512 187  510 194  504 200  501 202  495 205  479 206  473 205  469 203  462 199  453 190  453 226  406 226  406 48  454 48  453 62  460 55  464 52  467 49  471 48  475 46  484 45  489 46  497 48  503 51  507 54  509 58  512 61Z M458 73 L456 75  455 77  453 165  454 173  455 176  457 178  462 179  464 178  465 177  466 176  468 86  467 76  466 75  465 74  460 73Z M537 65 L539 63  548 54  563 48  582 45  591 46  600 47  607 50  614 53  620 57  625 62  629 66  632 72  636 87  638 129  576 129  577 168  577 174  578 176  580 178  584 179  586 179  589 178  591 176  593 139  638 139  638 158  637 169  636 172  634 178  627 189  624 193  621 196  614 200  606 204  584 207  577 206  570 205  564 204  557 202  552 199  547 196  543 193  539 188  536 184  534 180  531 172  529 101  530 91  531 83  533 75  535 69  537 66Z M583 73 L579 74  578 76  576 103  590 103  590 82  589 76  588 74  586 73Z M705 108 L703 110  702 114  701 204  653 204  653 48  701 48  699 69  701 63  704 59  708 55  711 52  717 48  722 47  729 45  729 100  723 100  717 101  713 102  709 104  707 106Z M831 24 L837 32  841 38  844 47  845 60  844 74  837 94  789 171  841 171  841 204  737 204  737 177  774 115  785 96  792 83  796 74  799 67  800 60  801 55  800 48  798 43  796 41  791 40  789 40  786 40  784 42  782 45  779 79  737 79  737 60  739 47  742 37  747 28  752 22  756 19  764 15  772 12  795 11  807 12  813 14  818 16  823 18  827 21Z M10 234 L118 234  118 272  89 272  89 424  39 424  39 272  10 272Z M179 328 L178 330  176 334  175 424  128 424  128 268  175 268  173 289  176 283  179 279  182 275  186 272  192 268  196 267  203 265  203 320  197 320  192 321  187 322  184 324  181 326Z M214 234 L262 234  262 259  214 259Z M214 268 L262 268  262 424  214 424Z M281 292 L283 288  286 283  292 277  300 272  312 267  331 265  342 266  352 268  360 270  367 274  372 278  377 283  380 290  382 297  384 424  338 424  338 410  336 414  333 417  330 420  327 422  319 425  310 427  304 426  297 424  289 420  285 417  281 411  278 401  277 375  278 367  279 361  281 356  283 352  288 348  327 330  332 328  335 325  336 307  336 299  335 297  334 295  332 293  328 293  326 293  324 294  323 296  322 328  277 328  277 313  278 305  279 298Z M331 399 L334 398  335 397  337 350  332 354  328 357  324 362  323 365  322 383  322 392  323 395  324 397  326 398Z M502 276 L504 279  507 286  509 424  462 424  462 308  461 296  460 295  458 293  454 293  452 293  450 295  449 296  448 424  400 424  400 268  448 268  448 283  450 278  453 275  457 272  460 270  468 266  477 265  483 266  488 267  493 269  497 271  501 274Z M633 400 L632 419  631 423  630 427  627 430  624 434  618 440  611 444  602 447  575 451  564 450  554 449  546 446  539 443  534 439  529 433  526 425  524 413  570 413  571 417  572 420  573 422  578 423  582 422  584 421  585 420  587 395  580 400  574 403  569 405  560 406  554 406  548 405  543 403  539 401  535 398  532 395  530 392  526 382  524 306  525 296  527 287  529 280  531 277  533 274  537 271  546 267  557 265  565 266  571 268  578 272  586 280  589 268  633 268Z M576 293 L575 294  573 296  572 367  572 374  573 375  574 377  578 378  580 378  583 377  585 374  586 304  585 298  584 295  583 294  578 293Z M709 397 L710 397  711 268  759 268  759 424  710 424  711 411  709 415  706 418  701 422  697 424  689 426  680 426  675 426  671 425  667 424  662 421  659 418  656 416  654 413  652 406  650 401  649 268  697 268  697 383  698 393  698 396  700 398  706 399  708 398  709 398Z M776 234 L824 234  824 424  776 424Z M843 292 L845 288  848 283  854 277  862 272  874 267  893 265  904 266  914 268  922 270  929 274  934 278  939 283  942 290  944 297  946 424  900 424  900 410  898 414  895 417  892 420  889 422  881 425  872 427  866 426  859 424  851 420  847 417  843 411  840 401  839 375  840 367  841 361  843 356  845 352  850 348  889 330  894 328  897 325  899 307  898 299  897 297  896 295  894 293  890 293  888 293  886 294  885 296  884 328  839 328  839 313  840 305  841 298Z M894 399 L896 398  897 397  899 350  894 354  890 357  886 362  885 365  884 383  884 392  885 395  886 397  888 398Z M968 410 L966 406  965 297  955 297  955 272  965 272  965 247  1012 247  1012 272  1025 272  1025 297  1012 297  1012 387  1013 395  1014 397  1027 399  1027 424  993 423  985 422  979 421  972 416  970 413Z M1035 234 L1084 234  1084 259  1035 259Z M1035 268 L1084 268  1084 424  1035 424Z M1112 413 L1110 412  1105 404  1102 394  1100 325  1100 315  1101 306  1103 298  1105 292  1108 286  1111 281  1116 277  1123 272  1135 267  1152 265  1160 266  1167 267  1174 268  1180 270  1185 273  1190 276  1194 279  1197 283  1203 290  1205 294  1206 299  1208 372  1207 387  1206 394  1203 401  1197 410  1193 414  1187 419  1179 422  1168 426  1154 427  1140 426  1134 425  1128 423  1123 421  1118 419  1114 416  1113 414Z M1157 399 L1158 398  1160 396  1161 305  1160 298  1159 295  1157 294  1153 293  1150 294  1148 296  1147 387  1147 391  1148 396  1149 397  1151 398  1155 399Z M1326 276 L1328 279  1331 286  1333 424  1286 424  1286 308  1285 296  1284 295  1282 293  1278 293  1276 293  1274 295  1273 296  1271 424  1224 424  1224 268  1272 268  1271 283  1274 278  1277 275  1280 272  1284 270  1292 266  1301 265  1307 266  1312 267  1317 269  1321 271  1324 274Z"
    style="fill:#000099; fill-opacity:0.13; fill-rule:nonzero; stroke:#000033; stroke-opacity:0.50; stroke-width:1.00;"/>
</svg>
