<?xml version="1.0" encoding="UTF-8" standalone="no"?>
<svg
   xmlns:svg="http://www.w3.org/2000/svg"
   xmlns="http://www.w3.org/2000/svg"
   width="800px"
   height="600px"
   viewBox="0 0 1600 1200"
   version="1.1">
  <path d="M568.5,243.5 L572.0,251.0, 570.0,260.0, 557.0,277.0, 538.0,292.0, 521.0,299.0, 511.0,299.0, 505.0,297.0, 497.0,293.0, 485.0,289.5, 477.0,292.0, 470.0,304.0, 457.0,343.0, 444.0,391.0, 437.0,414.0, 427.0,433.0, 410.0,450.0, 387.0,466.0, 370.0,482.0, 366.0,491.0, 368.0,501.0, 373.0,507.0, 379.0,510.0, 396.0,511.0, 414.0,507.0, 430.0,500.0, 452.0,484.0, 473.0,460.0, 511.0,401.0, 539.0,355.0, 547.0,348.5, 553.0,349.5, 556.0,353.0, 558.0,371.0, 554.0,390.0, 534.0,431.0, 508.0,469.0, 485.0,499.0, 474.0,511.0, 457.0,522.0, 416.0,542.0, 373.0,556.0, 340.0,562.0, 306.0,561.0, 271.0,557.0, 238.0,550.0, 207.0,537.0, 177.0,515.0, 152.0,488.0, 106.0,429.0, 67.0,393.0, 49.0,374.0, 37.0,352.0, 27.0,315.0, 27.0,298.0, 31.0,292.0, 37.0,288.0, 45.0,289.0, 51.0,294.0, 58.0,313.0, 64.0,337.0, 73.0,356.0, 104.0,393.0, 121.0,405.0, 130.0,406.0, 137.0,402.0, 146.0,388.0, 144.0,373.0, 134.0,357.0, 119.0,339.0, 83.0,303.0, 69.0,285.0, 59.0,266.0, 52.0,246.0, 51.0,237.0, 56.0,231.0, 63.0,231.0, 69.0,236.0, 78.0,257.0, 88.0,276.0, 94.0,281.0, 100.0,281.0, 105.0,276.0, 107.0,271.0, 104.0,257.0, 82.0,224.0, 60.0,190.0, 57.0,177.0, 59.0,171.0, 64.0,167.0, 73.0,165.0, 80.0,168.0, 93.0,184.0, 114.0,229.0, 122.0,248.0, 126.0,269.0, 136.0,311.0, 171.0,401.0, 178.0,427.0, 185.0,456.0, 195.0,479.0, 203.0,484.0, 212.0,483.0, 222.0,478.0, 229.0,472.0, 234.0,454.0, 230.0,431.0, 220.0,405.0, 193.0,348.0, 180.0,321.0, 172.0,295.0, 163.0,272.0, 150.0,247.0, 122.0,196.0, 112.0,173.0, 107.0,151.0, 110.0,134.0, 115.0,127.0, 124.0,121.0, 134.0,120.0, 143.0,126.0, 150.0,139.0, 153.0,158.0, 156.0,191.0, 162.0,228.0, 168.0,243.0, 175.0,256.0, 185.0,263.0, 198.0,264.0, 209.0,259.0, 216.0,248.0, 218.0,234.0, 217.0,217.0, 211.0,180.0, 205.0,145.0, 202.0,128.0, 195.0,109.0, 177.0,70.0, 170.0,53.0, 168.0,37.0, 172.0,26.0, 182.0,19.0, 193.0,20.0, 200.0,29.0, 208.0,66.0, 215.0,105.0, 223.0,118.0, 235.0,123.0, 243.0,120.0, 248.0,111.0, 253.0,86.0, 258.0,62.0, 263.0,56.0, 271.0,55.0, 283.0,63.0, 287.0,76.0, 286.0,93.0, 280.0,112.0, 262.0,154.0, 250.0,193.0, 236.0,251.0, 230.0,281.0, 227.0,310.0, 225.0,358.0, 229.0,379.0, 234.0,385.0, 242.0,389.0, 250.0,388.0, 256.0,384.0, 265.0,367.0, 276.0,325.0, 283.0,295.0, 287.0,264.0, 294.0,203.0, 311.0,127.0, 310.0,102.0, 306.0,74.0, 306.0,51.0, 310.0,43.0, 319.0,38.0, 332.0,38.0, 339.0,43.0, 343.0,51.0, 344.0,61.0, 344.0,84.0, 346.0,93.0, 352.0,99.0, 363.0,102.0, 375.0,98.0, 383.0,89.0, 387.0,77.0, 392.0,46.0, 395.0,32.0, 400.0,21.0, 411.0,16.0, 427.0,17.0, 434.0,22.0, 437.0,30.0, 433.0,54.0, 423.0,81.0, 417.0,107.0, 413.0,155.0, 416.0,175.0, 421.0,182.0, 428.0,186.0, 436.0,186.0, 442.0,182.0, 451.0,168.0, 457.0,147.0, 461.0,123.0, 465.0,98.0, 471.0,78.0, 479.0,65.0, 485.0,63.0, 493.0,63.5, 504.0,70.0, 509.0,81.0, 509.0,95.0, 506.0,111.0, 495.0,146.0, 481.0,177.0, 469.0,192.0, 451.0,205.0, 438.0,217.0, 436.0,224.0, 438.0,230.0, 443.0,235.0, 450.0,237.0, 467.0,232.0, 501.0,211.0, 515.0,195.0, 527.0,173.0, 539.0,157.0, 545.0,155.0, 552.0,156.0, 557.0,161.0, 559.0,168.0, 555.0,180.0, 531.0,211.0, 505.0,244.0, 500.0,259.0, 501.0,266.0, 505.0,272.0, 512.0,274.0, 520.0,271.0, 538.0,257.0, 556.0,242.0, 563.0,241.0, 568.5,243.5Z M315.0,284.0 L301.0,341.0, 286.0,385.0, 273.0,420.0, 267.0,450.0, 271.0,458.0, 281.0,464.0, 295.0,465.0, 306.0,463.0, 320.0,452.0, 330.0,438.0, 336.0,420.0, 340.0,401.0, 345.0,360.0, 353.0,321.0, 377.0,273.0, 387.0,248.0, 393.0,223.0, 396.0,200.0, 396.0,175.0, 391.0,154.0, 385.0,146.0, 377.0,141.0, 364.0,141.0, 353.0,149.0, 334.0,174.0, 323.0,199.0, 319.0,227.0, 315.0,284.0, 315.0,284.0Z M405.0,280.0 L390.0,297.0, 381.0,316.0, 371.0,358.0, 355.0,408.0, 353.0,431.0, 356.0,439.0, 364.0,443.0, 387.0,439.0, 404.0,429.0, 415.0,413.0, 423.0,394.0, 432.0,349.0, 438.0,326.0, 446.0,305.0, 454.0,288.0, 455.0,277.0, 451.0,270.0, 444.0,267.0, 424.0,270.0, 405.0,280.0, 405.0,280.0Z" style="fill:#000033;fill-opacity:0.25;fill-rule:evenodd;stroke:#000033;stroke-width:1.2;stroke-opacity:1"
/>
</svg>
