<?xml version="1.0" encoding="UTF-8" standalone="no"?>
<svg
   xmlns:svg="http://www.w3.org/2000/svg"
   xmlns="http://www.w3.org/2000/svg"
   width="800px"
   height="600px"
   viewBox="0 0 800 600"
   version="1.1">
  <path d="M569,243  L572,251  570,260  557,277  538,292  521,299  511,300  505,297  497,293  485,289  477,292  470,304  457,343  444,391  437,414  427,433  410,450  387,466  370,482  366,491  368,501  373,507  379,510  396,511  414,507  430,500  452,484  473,460  511,401  539,355  547,348  553,349  556,353  558,371  554,390  534,431  508,469  485,499  474,511  457,522  416,542  373,556  340,562  306,561  271,557  238,550  207,537  177,515  152,488  106,429  67,393  49,374  37,352  27,315  27,298  31,292  37,288  45,289  51,294  58,313  64,337  73,356  104,393  121,405  130,406  137,402  146,388  144,373  134,357  119,339  83,303  69,285  59,266  52,246  51,237  56,231  63,231  69,236  78,257  88,276  94,281  100,281  105,276  107,271  104,257  82,224  60,190  57,177  59,171  64,167  73,165  80,168  93,184  114,229  122,248  126,269  136,311  171,401  178,427  185,456  195,479  203,484  212,483  222,478  229,472  234,454  230,431  220,405  193,348  180,321  172,295  163,272  150,247  122,196  112,173  107,151  110,134  115,127  124,121  134,120  143,126  150,139  153,158  156,191  162,228  168,243  175,256  185,263  198,264  209,259  216,248  218,234  217,217  211,180  205,145  202,128  195,109  177,70  170,53  168,37  172,26  182,19  193,20  200,29  208,66  215,105  223,118  235,123  243,120  248,111  253,86  258,62  263,56  271,55  283,63  287,76  286,93  280,112  262,154  250,193  236,251  230,281  227,310  225,358  229,379  234,385  242,389  250,388  256,384  265,367  276,325  283,295  287,264  294,203  311,127  310,102  306,74  306,51  310,43  319,38  332,38  339,43  343,51  344,61  344,84  346,93  352,99  363,102  375,98  383,89  387,77  392,46  395,32  400,21  411,16  427,17  434,22  437,30  433,54  423,81  417,107  413,155  416,175  421,182  428,186  436,186  442,182  451,168  457,147  461,123  465,98  471,78  479,65  485,63  493,63  504,70  509,81  509,95  506,111  495,146  481,177  469,192  451,205  438,217  436,224  438,230  443,235  450,237  467,232  501,211  515,195  527,173  539,157  545,155  552,156  557,161  559,168  555,180  531,211  505,244  500,259  501,266  505,272  512,274  520,271  538,257  556,242  563,241  569,243  569,243Z M315,284  L301,341  286,385  273,420  267,450  271,458  281,464  295,465  306,463  320,452  330,438  336,420  340,401  345,360  353,321  377,273  387,248  393,223  396,200  396,175  391,154  385,146  377,141  364,141  353,149  334,174  323,199  319,227  315,284  315,284Z M405,280  L390,297  381,316  371,358  355,408  353,431  356,439  363,444  387,439  404,429  415,413  423,394  432,349  438,326  446,305  454,288  455,277  451,270  444,267  424,270  405,280  405,280Z" style="fill:#000033;fill-opacity:0.25;fill-rule:evenodd;stroke:#000033;stroke-width:1.2;stroke-opacity:1"
/>
</svg>
