<?xml version="1.0" encoding="UTF-8" standalone="no"?>
<svg
   xmlns:svg="http://www.w3.org/2000/svg"
   xmlns="http://www.w3.org/2000/svg"
   width="800px"
   height="600px"
   viewBox="0 0 1600 1200"
   version="1.1">
  <path d="M1137,487, L1144,502, 1140,520, 1114,554, 1076,584, 1042,598, 1022,598, 1010,594, 994,586, 970,579, 954,584, 940,608, 914,686, 888,782, 874,828, 854,866, 820,900, 774,932, 740,964, 732,982, 736,1002, 746,1014, 758,1020, 792,1022, 828,1014, 860,1000, 904,968, 946,920, 1022,802, 1078,710, 1094,697, 1106,699, 1112,706, 1116,742, 1108,780, 1068,862, 1016,938, 970,998, 948,1022, 914,1044, 832,1084, 746,1112, 680,1124, 612,1122, 542,1114, 476,1100, 414,1074, 354,1030, 304,976, 212,858, 134,786, 98,748, 74,704, 54,630, 54,596, 62,584, 74,576, 90,578, 102,588, 116,626, 128,674, 146,712, 208,786, 242,810, 260,812, 274,804, 292,776, 288,746, 268,714, 238,678, 166,606, 138,570, 118,532, 104,492, 102,474, 112,462, 126,462, 138,472, 156,514, 176,552, 188,562, 200,562, 210,552, 214,542, 208,514, 164,448, 120,380, 114,354, 118,342, 128,334, 146,330, 160,336, 186,368, 228,458, 244,496, 252,538, 272,622, 342,802, 356,854, 370,912, 390,958, 406,968, 424,966, 444,956, 458,944, 468,908, 460,862, 440,810, 386,696, 360,642, 344,590, 326,544, 300,494, 244,392, 224,346, 214,302, 220,268, 230,254, 248,242, 268,240, 286,252, 300,278, 306,316, 312,382, 324,456, 336,486, 350,512, 370,526, 396,528, 418,518, 432,496, 436,468, 434,434, 422,360, 410,290, 404,256, 390,218, 354,140, 340,106, 336,74, 344,52, 364,38, 386,40, 400,58, 416,132, 430,210, 446,236, 470,246, 486,240, 496,222, 506,172, 516,124, 526,112, 542,110, 566,126, 574,152, 572,186, 560,224, 524,308, 500,386, 472,502, 460,562, 454,620, 450,716, 458,758, 468,770, 484,778, 500,776, 512,768, 530,734, 552,650, 566,590, 574,528, 588,406, 622,254, 620,204, 612,148, 612,102, 620,86, 638,76, 664,76, 678,86, 686,102, 688,122, 688,168, 692,186, 704,198, 726,204, 750,196, 766,178, 774,154, 784,92, 790,64, 800,42, 822,32, 854,34, 868,44, 874,60, 866,108, 846,162, 834,214, 826,310, 832,350, 842,364, 856,372, 872,372, 884,364, 902,336, 914,294, 922,246, 930,196, 942,156, 958,130, 970,126, 986,127, 1008,140, 1018,162, 1018,190, 1012,222, 990,292, 962,354, 938,384, 902,410, 876,434, 872,448, 876,460, 886,470, 900,474, 934,464, 1002,422, 1030,390, 1054,346, 1078,314, 1090,310, 1104,312, 1114,322, 1118,336, 1110,360, 1062,422, 1010,488, 1000,518, 1002,532, 1010,544, 1024,548, 1040,542, 1076,514, 1112,484, 1126,482, 1137,487Z M630,568, L602,682, 572,770, 546,840, 534,900, 542,916, 562,928, 590,930, 612,926, 640,904, 660,876, 672,840, 680,802, 690,720, 706,642, 754,546, 774,496, 786,446, 792,400, 792,350, 782,308, 770,292, 754,282, 728,282, 706,298, 668,348, 646,398, 638,454, 630,568, 630,568Z M810,560, L780,594, 762,632, 742,716, 710,816, 706,862, 712,878, 728,886, 774,878, 808,858, 830,826, 846,788, 864,698, 876,652, 892,610, 908,576, 910,554, 902,540, 888,534, 848,540, 810,560, 810,560Z" style="fill:#000033;fill-opacity:0.25;fill-rule:evenodd;stroke:#000033;stroke-width:1.2;stroke-opacity:1"
/>
</svg>
