<?xml version="1.0" encoding="UTF-8" standalone="no"?>
<svg
   xmlns:svg="http://www.w3.org/2000/svg"
   xmlns="http://www.w3.org/2000/svg"
   width="300px"
   height="300px"
   viewBox="0 0 600 600"
   version="1.1">
  <path d="M588.3,259.7 L586.2,269.2, 572.4,287.2, 552.2,303.1, 534.2,310.6, 523.6,310.6, 517.3,308.4, 508.8,304.2, 496.1,300.5, 487.6,303.1, 480.2,315.9, 466.4,357.2, 452.6,408.1, 445.2,432.5, 434.6,452.6, 416.6,470.6, 392.2,487.6, 374.2,504.5, 369.9,514.1, 372.0,524.7, 377.3,531.0, 383.7,534.2, 401.7,535.3, 420.8,531.0, 437.8,523.6, 461.1,506.7, 483.3,481.2, 523.6,418.7, 553.3,369.9, 561.8,363.0, 568.1,364.1, 571.3,367.8, 573.4,386.9, 569.2,407.0, 548.0,450.5, 520.4,490.8, 496.1,522.6, 484.4,535.3, 466.4,546.9, 422.9,568.1, 377.3,583.0, 342.4,589.3, 306.3,588.3, 269.2,584.0, 234.2,576.6, 201.4,562.8, 169.6,539.5, 143.1,510.9, 94.3,448.4, 53.0,410.2, 33.9,390.1, 21.2,366.7, 10.6,327.5, 10.6,309.5, 14.8,303.1, 21.2,298.9, 29.6,300, 36.0,305.3, 43.4,325.4, 49.8,350.8, 59.3,371.0, 92.2,410.2, 110.2,422.9, 119.7,424.0, 127.2,419.7, 136.7,404.9, 134.6,389.0, 124.0,372.0, 108.1,353.0, 69.9,314.8, 55.1,295.7, 44.5,275.6, 37.1,254.4, 36.0,244.8, 41.3,238.5, 48.7,238.5, 55.1,243.8, 64.6,266.0, 75.2,286.2, 81.6,291.5, 87.9,291.5, 93.2,286.2, 95.4,280.9, 92.2,266.0, 68.9,231.0, 45.5,195.0, 42.4,181.2, 44.5,174.9, 49.8,170.6, 59.3,168.5, 66.7,171.7, 80.5,188.6, 102.8,236.3, 111.3,256.5, 115.5,278.7, 126.1,323.3, 163.2,418.7, 170.6,446.2, 178.0,477.0, 188.6,501.4, 197.1,506.7, 206.7,505.6, 217.3,500.3, 224.7,493.9, 230.0,474.9, 225.7,450.5, 215.1,422.9, 172.7,333.9, 164.3,306.3, 154.7,281.9, 140.9,255.4, 111.3,201.4, 100.7,177.0, 95.4,153.7, 98.5,135.6, 103.8,128.2, 113.4,121.9, 124.0,120.8, 133.5,127.2, 140.9,140.9, 144.1,161.1, 147.3,196.1, 153.7,235.3, 160.0,251.2, 167.4,265.0, 178.0,272.4, 191.8,273.4, 203.5,268.1, 210.9,256.5, 213.0,241.6, 212.0,223.6, 196.1,129.3, 188.6,109.1, 169.6,67.8, 162.1,49.8, 160.0,32.8, 164.3,21.2, 174.9,13.7, 186.5,14.8, 193.9,24.3, 202.4,63.6, 209.8,104.9, 218.3,118.7, 231.0,124.0, 239.5,120.8, 244.8,111.3, 255.4,59.3, 260.7,53.0, 269.2,51.9, 281.9,60.4, 286.2,74.2, 285.1,92.2, 278.7,112.3, 259.7,156.8, 246.9,198.2, 232.1,259.7, 225.7,291.5, 222.6,322.2, 220.4,373.1, 224.7,395.4, 230.0,401.7, 238.5,406.0, 246.9,404.9, 253.3,400.7, 262.8,382.6, 274.5,338.1, 281.9,306.3, 286.2,273.4, 293.6,208.8, 311.6,128.2, 310.6,101.7, 306.3,72.0, 306.3,47.7, 310.6,39.2, 320.1,33.9, 333.9,33.9, 341.3,39.2, 345.5,47.7, 346.6,58.3, 346.6,82.6, 348.7,92.2, 355.1,98.5, 366.7,101.7, 379.5,97.5, 387.9,87.9, 392.2,75.2, 397.5,42.4, 400.7,27.5, 406.0,15.9, 417.6,10.6, 434.6,11.6, 442.0,16.9, 445.2,25.4, 440.9,50.8, 430.3,79.5, 424.0,107.0, 419.7,157.9, 422.9,179.1, 428.2,186.5, 435.6,190.8, 444.1,190.8, 450.5,186.5, 460.0,171.7, 466.4,149.4, 474.9,97.5, 481.2,76.3, 489.7,62.5, 496.1,60.4, 504.5,60.9, 516.2,67.8, 521.5,79.5, 521.5,94.3, 518.3,111.3, 506.7,148.4, 491.8,181.2, 479.1,197.1, 460.0,210.9, 446.2,223.6, 444.1,231.0, 446.2,237.4, 451.5,242.7, 459.0,244.8, 477.0,239.5, 513.0,217.3, 527.9,200.3, 540.6,177.0, 553.3,160.0, 559.7,157.9, 567.1,159.0, 572.4,164.3, 574.5,171.7, 570.3,184.4, 517.3,252.2, 512.0,268.1, 513.0,275.6, 517.3,281.9, 524.7,284.0, 533.2,280.9, 552.2,266.0, 571.3,250.1, 578.7,249.1, 584.6,251.7Z M301.0,355.1 L285.1,401.7, 271.3,438.8, 265.0,470.6, 269.2,479.1, 279.8,485.5, 294.7,486.5, 306.3,484.4, 321.2,472.7, 331.8,457.9, 338.1,438.8, 342.4,418.7, 347.7,375.2, 356.1,333.9, 381.6,283.0, 392.2,256.5, 398.5,230.0, 401.7,205.6, 401.7,179.1, 396.4,156.8, 390.1,148.4, 381.6,143.1, 367.8,143.1, 356.1,151.5, 336.0,178.0, 324.3,204.5, 320.1,234.2, 315.9,294.7Z M395.4,308.4 L385.8,328.6, 375.2,373.1, 358.3,426.1, 356.1,450.5, 359.3,459.0, 367.8,463.2, 392.2,459.0, 410.2,448.4, 421.9,431.4, 430.3,411.3, 439.9,363.6, 446.2,339.2, 454.7,316.9, 463.2,298.9, 464.3,287.2, 460.0,279.8, 452.6,276.6, 431.4,279.8, 411.3,290.4Z" style="fill:#000033;fill-opacity:0.25;fill-rule:evenodd;stroke:#000033;stroke-width:1.2;stroke-opacity:1"
/>
</svg>
