<?xml version="1.0" encoding="UTF-8" standalone="no"?>
<svg
   xmlns:svg="http://www.w3.org/2000/svg"
   xmlns="http://www.w3.org/2000/svg"
   version="1.1"
   width="300"
   height="480"
   viewBox="0 0 300 480">
  <g
     transform="translate(-88.397628,-29.626113)">
    <path
       style="fill:none;stroke:#000000;stroke-opacity:1"
       d="m 206.225,503.122 -8.148,-2.095 -7.222,-4.233 -3.845,-7.305 0.58,-7.641 1.89,-7.452 2.575,-7.243 2.333,-5.778 -5.048,-0.572 -5.048,-0.572 -6.141,-0.733 -6.125,-0.86 -2.82,2.504 -2.802,5.561 -5.16,3.469 -8.834,0.605 -8.872,-0.029 -8.869,-0.21 -8.865,-0.338 -8.859,-0.466 -8.848,-0.647 -8.7614,-1.276 -4.6459,-7.072 2.8843,-8.492 5.478,-7.198 6.608,-6.191 4.85,-4.196 2.117,-5.783 -1.772,-5.173 -4.43,-3.518 -6.853,-5.828 -4.9814,-7.442 -2.056,-8.736 -0.2667,-8.999 0.4584,-8.995 0.7962,-8.905 0.9762,-8.887 1.088,-8.875 1.1893,-8.862 1.317,-8.842 1.655,-8.785 3.787,-7.716 5.144,-6.927 5.585,-6.58 5.786,-6.405 5.895,-6.305 6.342,-6.558 6.446,-6.458 6.519,-6.383 6.579,-6.321 6.636,-6.261 6.696,-6.198 6.766,-6.117 6.88,-5.993 7.206,-5.582 7.372,-3.146 7.613,-2.527 8.59,-2.717 7.365,-4.943 3.677,-8.186 2.607,-8.624 2.726,-8.495 3.376,-8.256 4.332,-7.792 -1.458,-5.5 -5.077,-8.354 -4.107,-6.133 -4.901,-5.546 -5.143,-5.321 -5.161,-5.33 -5.026,-5.46 -4.732,-5.71 -4.769,-8.681 -4.478,-8.836 -4.388,-8.881 -4.328,-8.9118 -4.274,-8.9376 -4.213,-8.9652 -4.122,-9.0077 -3.822,-9.1367 -1.49,-5.8115 -0.796,-5.9437 3.324,-8.4038 5.66,-4.6108 6.862,-2.4246 7.305,-0.2515 8.97,1.5992 8.434,3.4654 7.769,4.7856 7.175,5.644 6.7,6.2009 6.329,6.7251 5.725,7.2478 5.129,7.6801 4.7,7.9535 4.432,8.1049 4.275,8.1894 4.065,7.831 4.152,7.785 4.462,7.591 2.947,-8.361 1.153,-9.044 0.648,-9.095 0.55,-9.3465 1.417,-9.2418 2.861,-8.9116 2.684,-7.4629 2.844,-7.4041 3.144,-7.2812 4.078,-6.7684 8.321,-1.9385 6.629,5.7311 2.392,8.9515 0.86,9.2652 0.439,9.2971 0.266,9.3041 0.18,9.3061 0.125,7.6249 0.125,7.625 0.124,7.625 0.125,7.625 4.714,0.627 7.428,1.403 7.169,2.383 6.643,3.589 5.788,4.846 4.436,6.202 3.908,6.558 3.724,6.666 3.615,6.726 4.586,8.485 4.751,8.394 5.186,8.121 4.157,6.3 1.657,7.379 -0.019,7.584 -0.839,7.545 -1.674,7.58 -3.979,6.628 -5.465,5.526 -5.56,5.682 -3.206,7.214 -1.739,6.353 2.801,8.334 2.753,9.226 2.099,9.397 1.389,9.527 0.584,9.609 -0.365,9.619 -1.55,9.497 -2.509,9.05 -2.709,8.992 -2.82,8.958 -2.793,9.166 -2.483,9.254 -2.151,9.337 -1.818,9.408 -1.504,9.462 -1.223,9.504 -0.411,9.059 0.963,9.016 2.244,8.788 3.211,8.485 3.866,8.21 4.294,7.997 4.575,7.837 4.895,8.249 4.6,8.414 2.515,9.134 -4.607,5.514 -7.789,0.876 -7.851,0.142 -7.164,-0.054 -7.147,-0.484 -6.999,-1.494 -7.326,-2.485 -5.97,-4.777 -3.65,-6.812 -2.943,-7.161 -2.096,-5.292 -2.097,-5.293 -7.611,-0.392 -7.611,-0.392 -7.611,-0.392 -7.841,-0.434 -7.837,-0.491 -7.834,-0.555 -7.822,-0.698 -9.194,-0.324 -1.815,4.861 -1.504,4.978 -2.624,9.161 2.068,6.947 1.732,7.882 -0.428,7.949 -5.904,2.831 -6.75,0.429 -6.765,0.023 -9.656,-0.241 -9.631,-0.708 v 0 z"/>
  </g>
</svg>
